<?xml version="1.0" standalone="no"?>
<svg xmlns:xlink="http://www.w3.org/1999/xlink" id="wave" style="transform:rotate(0deg); transition: 0.3s" viewBox="0 0 1440 240" version="1.1" xmlns="http://www.w3.org/2000/svg"><defs><linearGradient id="sw-gradient-0" x1="0" x2="0" y1="1" y2="0"><stop stop-color="rgba(21, 33, 57, 1)" offset="0%"/><stop stop-color="rgba(31, 59, 111, 1)" offset="100%"/></linearGradient></defs><path style="transform:translate(0, 0px); opacity:1" fill="url(#sw-gradient-0)" d="M0,0L60,16C120,32,240,64,360,68C480,72,600,48,720,52C840,56,960,88,1080,84C1200,80,1320,40,1440,24C1560,8,1680,16,1800,48C1920,80,2040,136,2160,164C2280,192,2400,192,2520,168C2640,144,2760,96,2880,80C3000,64,3120,80,3240,72C3360,64,3480,32,3600,40C3720,48,3840,96,3960,120C4080,144,4200,144,4320,148C4440,152,4560,160,4680,160C4800,160,4920,152,5040,152C5160,152,5280,160,5400,168C5520,176,5640,184,5760,156C5880,128,6000,64,6120,36C6240,8,6360,16,6480,20C6600,24,6720,24,6840,44C6960,64,7080,104,7200,108C7320,112,7440,80,7560,88C7680,96,7800,144,7920,156C8040,168,8160,144,8280,128C8400,112,8520,104,8580,100L8640,96L8640,240L8580,240C8520,240,8400,240,8280,240C8160,240,8040,240,7920,240C7800,240,7680,240,7560,240C7440,240,7320,240,7200,240C7080,240,6960,240,6840,240C6720,240,6600,240,6480,240C6360,240,6240,240,6120,240C6000,240,5880,240,5760,240C5640,240,5520,240,5400,240C5280,240,5160,240,5040,240C4920,240,4800,240,4680,240C4560,240,4440,240,4320,240C4200,240,4080,240,3960,240C3840,240,3720,240,3600,240C3480,240,3360,240,3240,240C3120,240,3000,240,2880,240C2760,240,2640,240,2520,240C2400,240,2280,240,2160,240C2040,240,1920,240,1800,240C1680,240,1560,240,1440,240C1320,240,1200,240,1080,240C960,240,840,240,720,240C600,240,480,240,360,240C240,240,120,240,60,240L0,240Z"/></svg>