<svg width="20" height="20" viewBox="0 0 20 20" fill="none" xmlns="http://www.w3.org/2000/svg">
<path d="M17.2514 7.70686L16.7465 6.48152C16.7465 6.48152 17.9212 3.77442 17.8174 3.67034L16.262 2.11951C16.1545 2.01258 13.5032 3.24833 13.5032 3.24833L12.2803 2.744C12.2803 2.744 11.2001 0 11.0519 0H8.85729C8.70443 0 7.70485 2.74968 7.70485 2.74968L6.48386 3.2559C6.48386 3.2559 3.77692 2.08071 3.67317 2.18574L2.12052 3.73847C2.01306 3.84539 3.24888 6.49761 3.24888 6.49761L2.74399 7.72106C2.74399 7.72106 0 8.80068 0 8.9464V11.1435C0 11.2968 2.75047 12.2969 2.75047 12.2969L3.25536 13.5185C3.25536 13.5185 2.08069 16.2237 2.18352 16.3278L3.73801 17.8824C3.84362 17.9874 6.4959 16.7517 6.4959 16.7517L7.71967 17.2579C7.71967 17.2579 8.79985 20 8.949 20H11.1436C11.2956 20 12.2961 17.2503 12.2961 17.2503L13.5208 16.7441C13.5208 16.7441 16.2222 17.9193 16.3268 17.8162L17.8813 16.2634C17.9897 16.1546 16.7511 13.5043 16.7511 13.5043L17.2551 12.2808C17.2551 12.2808 20 11.1993 20 11.0517V8.85651C20.0009 8.70417 17.2514 7.70686 17.2514 7.70686ZM13.2067 9.99953C13.2067 11.7661 11.768 13.2043 10.0005 13.2043C8.23475 13.2043 6.7942 11.7661 6.7942 9.99953C6.7942 8.23296 8.23475 6.79661 10.0005 6.79661C11.769 6.79756 13.2067 8.23296 13.2067 9.99953Z" fill="white"/>
</svg>
