<svg width="780" height="707" viewBox="0 0 780 707" fill="none" xmlns="http://www.w3.org/2000/svg">
<path d="M775.82 2.99567C772.165 -0.157188 766.964 -0.888669 762.555 1.1223L7.10179 324.729C2.81366 326.69 0.0522789 330.898 0.000733029 335.547C-0.0508128 340.197 2.61975 344.463 6.86615 346.512L232.276 455.312C236.41 457.309 241.338 456.857 245.03 454.144L464.191 293.039L292.14 467.098C289.686 469.582 288.434 472.984 288.704 476.436L305.835 695.854C306.215 700.716 309.529 704.873 314.239 706.396C315.498 706.802 316.792 707 318.071 707C321.578 707 324.99 705.52 327.364 702.816L447.004 566.461L594.904 635.964C598.114 637.473 601.83 637.536 605.093 636.14C608.355 634.743 610.839 632.024 611.904 628.688L779.435 15.6868C780.893 11.124 779.472 6.14852 775.82 2.99567Z" fill="#152139"/>
</svg>
