<svg width="991" height="946" viewBox="0 0 991 946" fill="none" xmlns="http://www.w3.org/2000/svg">
<path d="M958.97 333.114L661.887 289.954L529.084 20.82C525.456 13.4513 519.489 7.48612 512.117 3.86024C493.63 -5.26294 471.165 2.33971 461.921 20.82L329.117 289.954L32.0349 333.114C23.8443 334.283 16.3558 338.143 10.6225 343.991C3.69114 351.113 -0.128347 360.694 0.00329329 370.629C0.134933 380.564 4.20692 390.04 11.3245 396.976L226.268 606.458L175.486 902.26C174.295 909.141 175.057 916.218 177.685 922.688C180.313 929.158 184.702 934.763 190.354 938.867C196.007 942.97 202.696 945.409 209.664 945.905C216.632 946.402 223.6 944.937 229.778 941.677L495.502 802.022L761.227 941.677C768.481 945.536 776.906 946.823 784.979 945.419C805.339 941.91 819.029 922.611 815.518 902.26L764.737 606.458L979.68 396.976C985.531 391.245 989.392 383.759 990.562 375.571C993.721 355.103 979.446 336.155 958.97 333.114V333.114Z" fill="#FFCE31"/>
</svg>
