<svg width="20" height="20" viewBox="0 0 20 20" fill="none" xmlns="http://www.w3.org/2000/svg">
<path d="M19.6643 9.03817L16.6332 5.78305V2.02285C16.6332 1.34295 16.1202 0.791945 15.4861 0.791945C14.8535 0.791945 14.3405 1.34295 14.3405 2.02285V3.32095L12.0836 0.897169C10.9678 -0.300479 9.02771 -0.298354 7.91443 0.899337L0.335548 9.03817C-0.111849 9.51959 -0.111849 10.2986 0.335548 10.7792C0.783148 11.2605 1.50992 11.2605 1.95736 10.7792L9.53551 2.64018C9.78238 2.37645 10.2175 2.37645 10.4631 2.6394L18.0425 10.7792C18.2673 11.0199 18.5603 11.1396 18.8532 11.1396C19.1468 11.1396 19.4403 11.0198 19.6643 10.7792C20.1119 10.2986 20.1119 9.51963 19.6643 9.03817Z" fill="white"/>
<path d="M10.3982 4.97669C10.178 4.74036 9.82149 4.74036 9.60195 4.97669L2.93555 12.1337C2.8303 12.2466 2.77063 12.4009 2.77063 12.5619V17.7819C2.77063 19.0068 3.69546 20 4.83604 20H8.13658V14.5107H11.8628V20H15.1634C16.304 20 17.2288 19.0068 17.2288 17.7819V12.5619C17.2288 12.4009 17.1696 12.2466 17.0639 12.1337L10.3982 4.97669Z" fill="white"/>
</svg>
