<svg width="810" height="810" viewBox="0 0 810 810" fill="none" xmlns="http://www.w3.org/2000/svg">
<path d="M737.679 332.679H491.786C483.798 332.679 477.321 326.202 477.321 318.214V72.3214C477.321 32.3822 444.939 0 405 0C365.061 0 332.679 32.3822 332.679 72.3214V318.214C332.679 326.202 326.202 332.679 318.214 332.679H72.3214C32.3822 332.679 0 365.061 0 405C0 444.939 32.3822 477.321 72.3214 477.321H318.214C326.202 477.321 332.679 483.798 332.679 491.786V737.679C332.679 777.618 365.061 810 405 810C444.939 810 477.321 777.618 477.321 737.679V491.786C477.321 483.798 483.798 477.321 491.786 477.321H737.679C777.618 477.321 810 444.939 810 405C810 365.061 777.618 332.679 737.679 332.679Z" fill="white"/>
</svg>
