<svg width="813" height="624" viewBox="0 0 813 624" fill="none" xmlns="http://www.w3.org/2000/svg">
<path d="M739.867 624C758.129 624 773.952 618.106 787.404 606.467L557.236 381.454C551.714 385.32 546.361 389.079 541.305 392.653C524.08 405.059 510.1 414.74 499.366 421.677C488.632 428.63 474.352 435.717 456.525 442.952C438.687 450.196 422.068 453.806 406.652 453.806H406.201H405.749C390.331 453.806 373.713 450.197 355.876 442.952C338.039 435.717 323.759 428.63 313.035 421.677C302.302 414.74 288.33 405.061 271.096 392.653C266.294 389.212 260.968 385.435 255.209 381.394L24.9973 606.467C38.4476 618.106 54.2814 624 72.5415 624H739.867V624Z" fill="white"/>
<path d="M45.7934 239.764C28.5702 228.539 13.2969 215.683 0 201.202V543.54L202.869 345.223C162.284 317.524 109.992 282.412 45.7934 239.764Z" fill="white"/>
<path d="M767.066 239.764C705.316 280.621 652.834 315.794 609.612 345.302L812.401 543.549V201.202C799.399 215.392 784.289 228.239 767.066 239.764Z" fill="white"/>
<path d="M739.87 0H72.5471C49.2662 0 31.3674 7.6852 18.8287 23.0398C6.2797 38.4015 0.0155029 57.6131 0.0155029 80.6529C0.0155029 99.2632 8.32843 119.428 24.9469 141.153C41.5654 162.869 59.2488 179.926 77.9883 192.333C88.2614 199.429 119.242 220.483 170.929 255.489C198.831 274.391 223.096 290.866 243.947 305.083C261.721 317.189 277.049 327.672 289.704 336.373C291.157 337.369 293.441 338.967 296.474 341.086C299.741 343.38 303.875 346.291 308.976 349.892C318.798 356.836 326.957 362.449 333.456 366.737C339.946 371.027 347.809 375.818 357.033 381.139C366.25 386.452 374.944 390.447 383.103 393.105C391.264 395.761 398.819 397.093 405.769 397.093H406.22H406.672C413.62 397.093 421.177 395.761 429.339 393.105C437.497 390.447 446.183 386.461 455.408 381.139C464.623 375.818 472.476 371.017 478.987 366.737C485.485 362.449 493.645 356.837 503.468 349.892C508.558 346.291 512.693 343.379 515.96 341.093C518.994 338.965 521.277 337.378 522.739 336.373C532.597 329.667 547.961 319.226 568.616 305.205C606.201 279.677 661.554 242.103 734.907 192.333C756.968 177.27 775.399 159.092 790.213 137.826C804.999 116.56 812.412 94.2526 812.412 70.9115C812.412 51.4101 805.225 34.7233 790.881 20.825C776.52 6.94408 759.515 0 739.87 0Z" fill="white"/>
</svg>
