<svg width="703" height="825" viewBox="0 0 703 825" fill="none" xmlns="http://www.w3.org/2000/svg">
<path fill-rule="evenodd" clip-rule="evenodd" d="M640.152 597.259L700.506 695.605C703.74 700.896 703.846 707.563 700.717 712.925C697.588 718.286 691.753 721.618 685.426 721.618H17.5512C11.224 721.618 5.42402 718.284 2.29499 712.89C-0.834034 707.495 -0.763172 700.898 2.50593 695.571L62.8602 597.225C90.7 551.831 105.429 499.874 105.429 446.956V360.808C105.429 252.05 179.669 160.062 281.185 130.406V68.726C281.185 30.8233 312.715 0 351.488 0C390.26 0 421.791 30.8233 421.791 68.726V130.406C523.309 160.062 597.548 252.05 597.548 360.808V446.956C597.548 499.874 612.277 551.866 640.152 597.259ZM351.497 824.707C302.602 824.707 260.632 796.461 240.806 755.981H462.189C442.363 796.461 400.391 824.707 351.497 824.707Z" fill="white"/>
</svg>
