<svg width="19" height="24" viewBox="0 0 19 24" fill="none" xmlns="http://www.w3.org/2000/svg">
<path d="M9.12717 11.4742C11.7956 11.4742 13.9589 8.90566 13.9589 5.73715C13.9589 2.56857 13.2487 0 9.12717 0C5.00569 0 4.29529 2.56857 4.29529 5.73715C4.29529 8.90566 6.45865 11.4742 9.12717 11.4742Z" fill="white"/>
<path d="M0.00094986 20.2341C-0.000695346 20.1797 0.000127257 20.0409 0.00094986 20.2341V20.2341Z" fill="#B0B0B0" fill-opacity="0.3"/>
<path d="M18.2531 20.385C18.2539 20.0181 18.2557 20.3321 18.2531 20.385V20.385Z" fill="#B0B0B0" fill-opacity="0.3"/>
<path d="M18.2427 20.0024C18.1532 14.4828 17.4158 12.91 11.7729 11.9144C11.7729 11.9144 10.9785 12.9039 9.12709 12.9039C7.27566 12.9039 6.4812 11.9144 6.4812 11.9144C0.899825 12.8992 0.117563 14.4486 0.0147059 19.8231C0.00627161 20.262 0.00236306 20.285 0.000854492 20.2341C0.00119735 20.3296 0.00160863 20.5061 0.00160863 20.814C0.00160863 20.814 1.34506 23.4615 9.12709 23.4615C16.909 23.4615 18.2526 20.814 18.2526 20.814C18.2526 20.6162 18.2527 20.4786 18.2529 20.3851C18.2514 20.4166 18.2484 20.3555 18.2427 20.0024Z" fill="white"/>
</svg>
