<svg width="548" height="538" viewBox="0 0 548 538" fill="none" xmlns="http://www.w3.org/2000/svg">
<path d="M541.103 461.625L409.52 328.739C400.084 319.205 388.291 315.388 383.182 320.263C378.055 325.102 366.254 321.295 356.819 311.761L354.937 309.853C413.829 234.135 408.113 125.723 337.393 56.5896C260.208 -18.8632 135.063 -18.8632 57.8884 56.5896C-19.2961 132.042 -19.2961 254.363 57.8884 329.815C129.813 400.136 243.334 404.846 320.948 344.111L321.775 344.954C331.192 354.487 334.701 366.136 329.558 370.983C324.439 375.832 327.922 387.489 337.367 397.005L468.879 529.943C478.315 539.452 493.862 539.735 503.624 530.503L540.533 495.592C550.258 486.382 550.521 471.193 541.103 461.625ZM293.961 287.354C240.846 339.286 154.411 339.286 101.304 287.372C48.1892 235.448 48.1972 150.944 101.304 99.0299C154.411 47.1064 240.846 47.1143 293.943 99.0378C347.066 150.953 347.066 235.44 293.961 287.354Z" fill="#152139"/>
</svg>
