<svg width="24" height="24" viewBox="0 0 24 24" fill="none" xmlns="http://www.w3.org/2000/svg">
<path d="M23.6296 20.1589L17.8835 14.3558C17.4714 13.9395 16.9564 13.7728 16.7333 13.9857C16.5094 14.197 15.9941 14.0307 15.582 13.6144L15.4999 13.5311C18.0716 10.2245 17.822 5.49026 14.7337 2.47123C11.3631 -0.823743 5.89812 -0.823743 2.52795 2.47123C-0.842649 5.7662 -0.842649 11.1078 2.52795 14.4028C5.66886 17.4737 10.6262 17.6794 14.0156 15.0271L14.0517 15.0639C14.463 15.4802 14.6162 15.9889 14.3916 16.2006C14.168 16.4123 14.3201 16.9214 14.7326 17.337L20.4756 23.1423C20.8877 23.5575 21.5666 23.5699 21.9929 23.1667L23.6047 21.6422C24.0294 21.24 24.0409 20.5767 23.6296 20.1589ZM12.8371 12.5486C10.5176 14.8164 6.74304 14.8164 4.42389 12.5493C2.10439 10.2819 2.10474 6.59162 4.42389 4.32457C6.74304 2.05711 10.5176 2.05745 12.8363 4.32491C15.1561 6.59203 15.1561 10.2815 12.8371 12.5486Z" fill="white"/>
</svg>
